<mxfile host="app.diagrams.net" modified="2023-04-23T14:41:40.771Z" agent="Mozilla/5.0 (Windows NT 10.0; Win64; x64; rv:109.0) Gecko/20100101 Firefox/112.0" etag="nysbmGbwXn4a4PkQ1dX8" version="21.2.1" type="device">
  <diagram id="C5RBs43oDa-KdzZeNtuy" name="Page-1">
    <mxGraphModel dx="1673" dy="883" grid="0" gridSize="10" guides="1" tooltips="1" connect="1" arrows="1" fold="1" page="0" pageScale="1" pageWidth="827" pageHeight="1169" math="0" shadow="0">
      <root>
        <mxCell id="WIyWlLk6GJQsqaUBKTNV-0" />
        <mxCell id="WIyWlLk6GJQsqaUBKTNV-1" parent="WIyWlLk6GJQsqaUBKTNV-0" />
        <mxCell id="R08T44_Gn2-2p48tk1BM-0" value="User process" style="swimlane;childLayout=stackLayout;resizeParent=1;resizeParentMax=0;horizontal=1;startSize=20;horizontalStack=0;html=1;fontSize=16;" vertex="1" parent="WIyWlLk6GJQsqaUBKTNV-1">
          <mxGeometry x="20" y="80" width="1600" height="340" as="geometry" />
        </mxCell>
        <mxCell id="R08T44_Gn2-2p48tk1BM-1" value="&lt;div&gt;User&lt;/div&gt;" style="swimlane;startSize=20;horizontal=0;html=1;fontSize=16;" vertex="1" parent="R08T44_Gn2-2p48tk1BM-0">
          <mxGeometry y="20" width="1600" height="160" as="geometry" />
        </mxCell>
        <mxCell id="R08T44_Gn2-2p48tk1BM-4" value="User scanned qr code on a device" style="ellipse;whiteSpace=wrap;html=1;fontSize=16;" vertex="1" parent="R08T44_Gn2-2p48tk1BM-1">
          <mxGeometry x="30" y="20" width="130" height="80" as="geometry" />
        </mxCell>
        <mxCell id="R08T44_Gn2-2p48tk1BM-17" value="" style="edgeStyle=none;curved=1;rounded=0;orthogonalLoop=1;jettySize=auto;html=1;fontSize=12;startSize=8;endSize=8;" edge="1" parent="R08T44_Gn2-2p48tk1BM-1" source="R08T44_Gn2-2p48tk1BM-13" target="R08T44_Gn2-2p48tk1BM-16">
          <mxGeometry relative="1" as="geometry" />
        </mxCell>
        <mxCell id="R08T44_Gn2-2p48tk1BM-18" value="" style="edgeStyle=none;curved=1;rounded=0;orthogonalLoop=1;jettySize=auto;html=1;fontSize=12;startSize=8;endSize=8;" edge="1" parent="R08T44_Gn2-2p48tk1BM-1" source="R08T44_Gn2-2p48tk1BM-13" target="R08T44_Gn2-2p48tk1BM-16">
          <mxGeometry relative="1" as="geometry" />
        </mxCell>
        <mxCell id="R08T44_Gn2-2p48tk1BM-23" value="No" style="edgeLabel;html=1;align=center;verticalAlign=middle;resizable=0;points=[];fontSize=16;" vertex="1" connectable="0" parent="R08T44_Gn2-2p48tk1BM-18">
          <mxGeometry x="0.3118" relative="1" as="geometry">
            <mxPoint as="offset" />
          </mxGeometry>
        </mxCell>
        <mxCell id="R08T44_Gn2-2p48tk1BM-13" value="Have an account?" style="rhombus;whiteSpace=wrap;html=1;shadow=0;fontFamily=Helvetica;fontSize=12;align=center;strokeWidth=1;spacing=6;spacingTop=-4;" vertex="1" parent="R08T44_Gn2-2p48tk1BM-1">
          <mxGeometry x="200" y="20" width="100" height="80" as="geometry" />
        </mxCell>
        <mxCell id="R08T44_Gn2-2p48tk1BM-24" style="edgeStyle=none;curved=1;rounded=0;orthogonalLoop=1;jettySize=auto;html=1;exitX=0.5;exitY=1;exitDx=0;exitDy=0;entryX=0.5;entryY=0;entryDx=0;entryDy=0;fontSize=12;startSize=8;endSize=8;" edge="1" parent="R08T44_Gn2-2p48tk1BM-1" source="R08T44_Gn2-2p48tk1BM-16" target="R08T44_Gn2-2p48tk1BM-20">
          <mxGeometry relative="1" as="geometry" />
        </mxCell>
        <mxCell id="R08T44_Gn2-2p48tk1BM-16" value="Sign up" style="rounded=1;whiteSpace=wrap;html=1;shadow=0;strokeWidth=1;spacing=6;spacingTop=-4;fontSize=16;" vertex="1" parent="R08T44_Gn2-2p48tk1BM-1">
          <mxGeometry x="354" y="20" width="80" height="30" as="geometry" />
        </mxCell>
        <mxCell id="R08T44_Gn2-2p48tk1BM-20" value="Log in" style="rounded=1;whiteSpace=wrap;html=1;shadow=0;strokeWidth=1;spacing=6;spacingTop=-4;fontSize=16;" vertex="1" parent="R08T44_Gn2-2p48tk1BM-1">
          <mxGeometry x="394" y="110" width="80" height="30" as="geometry" />
        </mxCell>
        <mxCell id="R08T44_Gn2-2p48tk1BM-21" value="" style="edgeStyle=none;curved=1;rounded=0;orthogonalLoop=1;jettySize=auto;html=1;fontSize=12;startSize=8;endSize=8;" edge="1" parent="R08T44_Gn2-2p48tk1BM-1" source="R08T44_Gn2-2p48tk1BM-13" target="R08T44_Gn2-2p48tk1BM-20">
          <mxGeometry relative="1" as="geometry" />
        </mxCell>
        <mxCell id="R08T44_Gn2-2p48tk1BM-22" value="Yes" style="edgeLabel;html=1;align=center;verticalAlign=middle;resizable=0;points=[];fontSize=16;" vertex="1" connectable="0" parent="R08T44_Gn2-2p48tk1BM-21">
          <mxGeometry x="-0.5012" y="1" relative="1" as="geometry">
            <mxPoint as="offset" />
          </mxGeometry>
        </mxCell>
        <mxCell id="R08T44_Gn2-2p48tk1BM-37" style="edgeStyle=none;curved=1;rounded=0;orthogonalLoop=1;jettySize=auto;html=1;fontSize=12;startSize=8;endSize=8;" edge="1" parent="R08T44_Gn2-2p48tk1BM-1" source="R08T44_Gn2-2p48tk1BM-30">
          <mxGeometry relative="1" as="geometry">
            <mxPoint x="840" y="105" as="targetPoint" />
          </mxGeometry>
        </mxCell>
        <mxCell id="R08T44_Gn2-2p48tk1BM-48" value="No" style="edgeLabel;html=1;align=center;verticalAlign=middle;resizable=0;points=[];fontSize=16;" vertex="1" connectable="0" parent="R08T44_Gn2-2p48tk1BM-37">
          <mxGeometry x="-0.1765" y="-1" relative="1" as="geometry">
            <mxPoint x="1" as="offset" />
          </mxGeometry>
        </mxCell>
        <mxCell id="R08T44_Gn2-2p48tk1BM-30" value="&lt;font style=&quot;font-size: 12px;&quot;&gt;Need to add device?&lt;/font&gt;" style="rhombus;whiteSpace=wrap;html=1;fontSize=16;" vertex="1" parent="R08T44_Gn2-2p48tk1BM-1">
          <mxGeometry x="485" y="70" width="100" height="70" as="geometry" />
        </mxCell>
        <mxCell id="R08T44_Gn2-2p48tk1BM-32" value="Press &quot;+?&quot; button" style="rounded=1;whiteSpace=wrap;html=1;fontSize=16;" vertex="1" parent="R08T44_Gn2-2p48tk1BM-1">
          <mxGeometry x="570" y="20" width="96" height="40" as="geometry" />
        </mxCell>
        <mxCell id="R08T44_Gn2-2p48tk1BM-33" value="Yes" style="edgeStyle=none;curved=1;rounded=0;orthogonalLoop=1;jettySize=auto;html=1;fontSize=12;startSize=8;endSize=8;" edge="1" parent="R08T44_Gn2-2p48tk1BM-1" source="R08T44_Gn2-2p48tk1BM-30" target="R08T44_Gn2-2p48tk1BM-32">
          <mxGeometry relative="1" as="geometry" />
        </mxCell>
        <mxCell id="R08T44_Gn2-2p48tk1BM-46" style="edgeStyle=none;curved=1;rounded=0;orthogonalLoop=1;jettySize=auto;html=1;exitX=0.75;exitY=1;exitDx=0;exitDy=0;fontSize=12;startSize=8;endSize=8;" edge="1" parent="R08T44_Gn2-2p48tk1BM-1" source="R08T44_Gn2-2p48tk1BM-35">
          <mxGeometry relative="1" as="geometry">
            <mxPoint x="780" y="110" as="targetPoint" />
          </mxGeometry>
        </mxCell>
        <mxCell id="R08T44_Gn2-2p48tk1BM-35" value="Setting up device" style="rounded=1;whiteSpace=wrap;html=1;shadow=0;strokeWidth=1;spacing=6;spacingTop=-4;fontSize=16;" vertex="1" parent="R08T44_Gn2-2p48tk1BM-1">
          <mxGeometry x="697" y="15" width="110" height="40" as="geometry" />
        </mxCell>
        <mxCell id="R08T44_Gn2-2p48tk1BM-52" value="&lt;font style=&quot;font-size: 16px;&quot;&gt;Yes&lt;/font&gt;" style="edgeStyle=none;curved=1;rounded=0;orthogonalLoop=1;jettySize=auto;html=1;exitX=0.5;exitY=1;exitDx=0;exitDy=0;entryX=0;entryY=0.5;entryDx=0;entryDy=0;fontSize=12;startSize=8;endSize=8;" edge="1" parent="R08T44_Gn2-2p48tk1BM-1" source="R08T44_Gn2-2p48tk1BM-42" target="R08T44_Gn2-2p48tk1BM-49">
          <mxGeometry relative="1" as="geometry" />
        </mxCell>
        <mxCell id="R08T44_Gn2-2p48tk1BM-61" value="" style="edgeStyle=none;curved=1;rounded=0;orthogonalLoop=1;jettySize=auto;html=1;fontSize=12;startSize=8;endSize=8;entryX=0;entryY=0.5;entryDx=0;entryDy=0;" edge="1" parent="R08T44_Gn2-2p48tk1BM-1" source="R08T44_Gn2-2p48tk1BM-42">
          <mxGeometry relative="1" as="geometry">
            <mxPoint x="1450" y="40" as="targetPoint" />
          </mxGeometry>
        </mxCell>
        <mxCell id="R08T44_Gn2-2p48tk1BM-63" value="No" style="edgeLabel;html=1;align=center;verticalAlign=middle;resizable=0;points=[];fontSize=16;" vertex="1" connectable="0" parent="R08T44_Gn2-2p48tk1BM-61">
          <mxGeometry x="-0.7143" y="4" relative="1" as="geometry">
            <mxPoint as="offset" />
          </mxGeometry>
        </mxCell>
        <mxCell id="R08T44_Gn2-2p48tk1BM-42" value="&lt;div&gt;&lt;font style=&quot;font-size: 12px;&quot;&gt;Need to setup &lt;br&gt;&lt;/font&gt;&lt;/div&gt;&lt;div&gt;&lt;font style=&quot;font-size: 12px;&quot;&gt;app? &lt;/font&gt;&lt;/div&gt;" style="rhombus;whiteSpace=wrap;html=1;fontSize=16;" vertex="1" parent="R08T44_Gn2-2p48tk1BM-1">
          <mxGeometry x="960" y="5" width="100" height="70" as="geometry" />
        </mxCell>
        <mxCell id="R08T44_Gn2-2p48tk1BM-51" style="edgeStyle=none;curved=1;rounded=0;orthogonalLoop=1;jettySize=auto;html=1;exitX=1;exitY=0;exitDx=0;exitDy=0;entryX=0;entryY=0.5;entryDx=0;entryDy=0;fontSize=12;startSize=8;endSize=8;" edge="1" parent="R08T44_Gn2-2p48tk1BM-1" source="R08T44_Gn2-2p48tk1BM-44" target="R08T44_Gn2-2p48tk1BM-42">
          <mxGeometry relative="1" as="geometry" />
        </mxCell>
        <mxCell id="R08T44_Gn2-2p48tk1BM-44" value="Devices data are avialable" style="rounded=1;whiteSpace=wrap;html=1;shadow=0;strokeWidth=1;spacing=6;spacingTop=-4;fontSize=16;" vertex="1" parent="R08T44_Gn2-2p48tk1BM-1">
          <mxGeometry x="840" y="85" width="110" height="40" as="geometry" />
        </mxCell>
        <mxCell id="R08T44_Gn2-2p48tk1BM-59" value="" style="edgeStyle=none;curved=1;rounded=0;orthogonalLoop=1;jettySize=auto;html=1;fontSize=12;startSize=8;endSize=8;" edge="1" parent="R08T44_Gn2-2p48tk1BM-1" source="R08T44_Gn2-2p48tk1BM-49" target="R08T44_Gn2-2p48tk1BM-50">
          <mxGeometry relative="1" as="geometry" />
        </mxCell>
        <mxCell id="R08T44_Gn2-2p48tk1BM-49" value="Setup alarms" style="rounded=1;whiteSpace=wrap;html=1;fontSize=16;" vertex="1" parent="R08T44_Gn2-2p48tk1BM-1">
          <mxGeometry x="1070" y="70" width="114" height="48" as="geometry" />
        </mxCell>
        <mxCell id="R08T44_Gn2-2p48tk1BM-50" value="Change devices access policies" style="rounded=1;whiteSpace=wrap;html=1;fontSize=16;" vertex="1" parent="R08T44_Gn2-2p48tk1BM-1">
          <mxGeometry x="1221" y="70" width="139" height="40" as="geometry" />
        </mxCell>
        <mxCell id="R08T44_Gn2-2p48tk1BM-64" value="Leave app" style="ellipse;whiteSpace=wrap;html=1;fontSize=16;" vertex="1" parent="R08T44_Gn2-2p48tk1BM-1">
          <mxGeometry x="1450" y="20" width="120" height="80" as="geometry" />
        </mxCell>
        <mxCell id="R08T44_Gn2-2p48tk1BM-2" value="Application" style="swimlane;startSize=20;horizontal=0;html=1;fontSize=16;" vertex="1" parent="R08T44_Gn2-2p48tk1BM-0">
          <mxGeometry y="180" width="1600" height="160" as="geometry" />
        </mxCell>
        <mxCell id="R08T44_Gn2-2p48tk1BM-28" style="edgeStyle=none;curved=1;rounded=0;orthogonalLoop=1;jettySize=auto;html=1;exitX=0.5;exitY=1;exitDx=0;exitDy=0;fontSize=12;startSize=8;endSize=8;" edge="1" parent="R08T44_Gn2-2p48tk1BM-2" source="WIyWlLk6GJQsqaUBKTNV-6">
          <mxGeometry relative="1" as="geometry">
            <mxPoint x="470" y="100" as="targetPoint" />
          </mxGeometry>
        </mxCell>
        <mxCell id="R08T44_Gn2-2p48tk1BM-29" value="Yes" style="edgeLabel;html=1;align=center;verticalAlign=middle;resizable=0;points=[];fontSize=16;" vertex="1" connectable="0" parent="R08T44_Gn2-2p48tk1BM-28">
          <mxGeometry x="-0.1743" y="1" relative="1" as="geometry">
            <mxPoint as="offset" />
          </mxGeometry>
        </mxCell>
        <mxCell id="WIyWlLk6GJQsqaUBKTNV-6" value="Have active session?" style="rhombus;whiteSpace=wrap;html=1;shadow=0;fontFamily=Helvetica;fontSize=12;align=center;strokeWidth=1;spacing=6;spacingTop=-4;" parent="R08T44_Gn2-2p48tk1BM-2" vertex="1">
          <mxGeometry x="45" y="20" width="100" height="80" as="geometry" />
        </mxCell>
        <mxCell id="WIyWlLk6GJQsqaUBKTNV-7" value="Redirect to application main page" style="rounded=1;whiteSpace=wrap;html=1;fontSize=12;glass=0;strokeWidth=1;shadow=0;" parent="R08T44_Gn2-2p48tk1BM-2" vertex="1">
          <mxGeometry x="470" y="80" width="130" height="40" as="geometry" />
        </mxCell>
        <mxCell id="R08T44_Gn2-2p48tk1BM-8" value="Shows setup instructions" style="rounded=1;whiteSpace=wrap;html=1;shadow=0;strokeWidth=1;spacing=6;spacingTop=-4;fontSize=16;" vertex="1" parent="R08T44_Gn2-2p48tk1BM-2">
          <mxGeometry x="630" y="80" width="110" height="40" as="geometry" />
        </mxCell>
        <mxCell id="R08T44_Gn2-2p48tk1BM-11" value="Redirect to login page" style="rounded=1;whiteSpace=wrap;html=1;shadow=0;strokeWidth=1;spacing=6;spacingTop=-4;fontSize=16;" vertex="1" parent="R08T44_Gn2-2p48tk1BM-2">
          <mxGeometry x="192" y="40" width="116" height="40" as="geometry" />
        </mxCell>
        <mxCell id="R08T44_Gn2-2p48tk1BM-12" value="No" style="edgeStyle=none;curved=1;rounded=0;orthogonalLoop=1;jettySize=auto;html=1;fontSize=12;startSize=8;endSize=8;" edge="1" parent="R08T44_Gn2-2p48tk1BM-2" source="WIyWlLk6GJQsqaUBKTNV-6" target="R08T44_Gn2-2p48tk1BM-11">
          <mxGeometry relative="1" as="geometry" />
        </mxCell>
        <mxCell id="R08T44_Gn2-2p48tk1BM-62" style="edgeStyle=none;curved=1;rounded=0;orthogonalLoop=1;jettySize=auto;html=1;exitX=0.75;exitY=0;exitDx=0;exitDy=0;fontSize=12;startSize=8;endSize=8;" edge="1" parent="R08T44_Gn2-2p48tk1BM-2" source="R08T44_Gn2-2p48tk1BM-53">
          <mxGeometry relative="1" as="geometry">
            <mxPoint x="1420" y="-120" as="targetPoint" />
          </mxGeometry>
        </mxCell>
        <mxCell id="R08T44_Gn2-2p48tk1BM-53" value="Write changes to database" style="rounded=1;whiteSpace=wrap;html=1;fontSize=16;" vertex="1" parent="R08T44_Gn2-2p48tk1BM-2">
          <mxGeometry x="1310" y="50" width="139" height="40" as="geometry" />
        </mxCell>
        <mxCell id="R08T44_Gn2-2p48tk1BM-58" style="edgeStyle=none;curved=1;rounded=0;orthogonalLoop=1;jettySize=auto;html=1;fontSize=12;startSize=8;endSize=8;" edge="1" parent="R08T44_Gn2-2p48tk1BM-2" source="R08T44_Gn2-2p48tk1BM-56">
          <mxGeometry relative="1" as="geometry">
            <mxPoint x="434" y="100" as="targetPoint" />
          </mxGeometry>
        </mxCell>
        <mxCell id="R08T44_Gn2-2p48tk1BM-56" value="Creating session" style="rounded=1;whiteSpace=wrap;html=1;shadow=0;strokeWidth=1;spacing=6;spacingTop=-4;fontSize=16;" vertex="1" parent="R08T44_Gn2-2p48tk1BM-2">
          <mxGeometry x="384" y="20" width="100" height="50" as="geometry" />
        </mxCell>
        <mxCell id="R08T44_Gn2-2p48tk1BM-14" style="edgeStyle=none;curved=1;rounded=0;orthogonalLoop=1;jettySize=auto;html=1;entryX=0.5;entryY=1;entryDx=0;entryDy=0;fontSize=12;startSize=8;endSize=8;" edge="1" parent="R08T44_Gn2-2p48tk1BM-0" source="R08T44_Gn2-2p48tk1BM-11" target="R08T44_Gn2-2p48tk1BM-13">
          <mxGeometry relative="1" as="geometry" />
        </mxCell>
        <mxCell id="R08T44_Gn2-2p48tk1BM-27" value="" style="edgeStyle=none;curved=1;rounded=0;orthogonalLoop=1;jettySize=auto;html=1;fontSize=12;startSize=8;endSize=8;" edge="1" parent="R08T44_Gn2-2p48tk1BM-0" source="R08T44_Gn2-2p48tk1BM-4" target="WIyWlLk6GJQsqaUBKTNV-6">
          <mxGeometry relative="1" as="geometry" />
        </mxCell>
        <mxCell id="R08T44_Gn2-2p48tk1BM-31" value="" style="edgeStyle=none;curved=1;rounded=0;orthogonalLoop=1;jettySize=auto;html=1;fontSize=12;startSize=8;endSize=8;" edge="1" parent="R08T44_Gn2-2p48tk1BM-0" source="WIyWlLk6GJQsqaUBKTNV-7" target="R08T44_Gn2-2p48tk1BM-30">
          <mxGeometry relative="1" as="geometry" />
        </mxCell>
        <mxCell id="R08T44_Gn2-2p48tk1BM-34" value="" style="edgeStyle=none;curved=1;rounded=0;orthogonalLoop=1;jettySize=auto;html=1;fontSize=12;startSize=8;endSize=8;" edge="1" parent="R08T44_Gn2-2p48tk1BM-0" source="R08T44_Gn2-2p48tk1BM-32" target="R08T44_Gn2-2p48tk1BM-8">
          <mxGeometry relative="1" as="geometry" />
        </mxCell>
        <mxCell id="R08T44_Gn2-2p48tk1BM-36" value="" style="edgeStyle=none;curved=1;rounded=0;orthogonalLoop=1;jettySize=auto;html=1;fontSize=12;startSize=8;endSize=8;" edge="1" parent="R08T44_Gn2-2p48tk1BM-0" source="R08T44_Gn2-2p48tk1BM-8" target="R08T44_Gn2-2p48tk1BM-35">
          <mxGeometry relative="1" as="geometry" />
        </mxCell>
        <mxCell id="R08T44_Gn2-2p48tk1BM-54" value="" style="edgeStyle=none;curved=1;rounded=0;orthogonalLoop=1;jettySize=auto;html=1;fontSize=12;startSize=8;endSize=8;" edge="1" parent="R08T44_Gn2-2p48tk1BM-0" source="R08T44_Gn2-2p48tk1BM-50" target="R08T44_Gn2-2p48tk1BM-53">
          <mxGeometry relative="1" as="geometry" />
        </mxCell>
        <mxCell id="R08T44_Gn2-2p48tk1BM-57" value="" style="edgeStyle=none;curved=1;rounded=0;orthogonalLoop=1;jettySize=auto;html=1;fontSize=12;startSize=8;endSize=8;" edge="1" parent="R08T44_Gn2-2p48tk1BM-0" source="R08T44_Gn2-2p48tk1BM-20" target="R08T44_Gn2-2p48tk1BM-56">
          <mxGeometry relative="1" as="geometry" />
        </mxCell>
      </root>
    </mxGraphModel>
  </diagram>
</mxfile>
